#!OML:ASF E:\emotionWalksFemale\Project 1\Capture day 1\Session 1\Female1.ASF
:FULLY-SPECIFIED
:DEGREES
752
root -4.20823 15.192 -24.7339 181.026 -14.3307 175.632
lowerback 6.96307 -0.0468473 -2.36864
upperback -4.00546 -0.554633 -1.85883
thorax -8.13496 -0.242931 -0.547026
lowerneck -3.20978 -9.11236 -15.7511
upperneck 12.8727 -14.758 17.5499
head 6.90695 -7.34551 7.00559
rclavicle -1.51698e-014 -3.47873e-015
rhumerus -50.587 17.0263 -94.385
rradius 53.0558
rwrist 4.95285
rhand -2.84695 -52.817
rfingers 7.12502
rthumb 22.8608 -81.482
lclavicle -1.51698e-014 -3.47873e-015
lhumerus -50.5562 9.81414 67.6391
lradius 36.6004
lwrist -13.6178
lhand -4.37624 -30.4094
lfingers 7.12502
lthumb 21.3926 -1.57036
rfemur -3.02502 14.8067 36.3412
rtibia 20.5857
rfoot -14.8329 -24.6801
rtoes 29.5691
lfemur -23.6845 -2.88936 -16.2813
ltibia 64.2628
lfoot -11.4317 5.33533
ltoes -29.4175
753
root -4.23585 15.1824 -24.8319 181.078 -13.1359 175.585
lowerback 7.03858 0.0619257 -2.3185
upperback -4.01003 -0.410036 -1.8875
thorax -8.18558 -0.176166 -0.625614
lowerneck -3.90846 -9.2452 -15.7069
upperneck 13.1937 -14.8735 17.4179
head 7.14139 -7.36211 6.90428
rclavicle -1.43622e-014 -5.56597e-015
rhumerus -50.4999 17.1453 -94.5521
rradius 54.0635
rwrist 4.61482
rhand -3.40719 -52.1731
rfingers 7.12502
rthumb 22.3231 -80.9036
lclavicle -1.43622e-014 -5.56597e-015
lhumerus -51.1774 9.81311 67.6524
lradius 36.6935
lwrist -13.1483
lhand -4.35451 -30.8085
lfingers 7.12502
lthumb 21.4135 -1.97184
rfemur -2.88153 15.278 36.3266
rtibia 21.194
rfoot -15.4719 -24.1443
rtoes 27.3599
lfemur -24.3095 -3.56617 -16.4677
ltibia 62.9483
lfoot -11.6503 6.68421
ltoes -32.2644
754
root -4.25461 15.1915 -24.9223 181.198 -11.952 175.734
lowerback 6.96722 0.176109 -2.13506
upperback -3.94289 -0.224395 -1.84012
thorax -8.07188 -0.092831 -0.703833
lowerneck -4.52636 -9.35976 -15.5989
upperneck 13.1981 -14.9284 17.3806
head 7.25391 -7.34411 6.8351
rclavicle 7.72775e-015 1.60022e-014
rhumerus -50.1469 17.2898 -94.6211
rradius 54.8713
rwrist 4.41382
rhand -3.58827 -51.8662
rfingers 7.12502
rthumb 22.1493 -80.6174
lclavicle 7.72775e-015 1.60022e-014
lhumerus -51.3149 10.2232 67.5656
lradius 36.3204
lwrist -13.2737
lhand -4.49862 -31.2703
lfingers 7.12502
lthumb 21.2751 -2.41802
rfemur -1.98855 13.5704 36.7497
rtibia 21.7211
rfoot -16.2232 -22.5832
rtoes 21.5025
lfemur -24.9294 -4.29364 -16.3659
ltibia 61.3448
lfoot -11.8373 7.89077
ltoes -35.0085
755
root -4.27058 15.1959 -25.0178 181.243 -10.7105 175.985
lowerback 6.90504 0.232056 -1.97659
upperback -4.05776 -0.129274 -1.75154
thorax -8.15908 -0.0523698 -0.713192
lowerneck -4.0927 -9.09529 -15.3457
upperneck 12.9225 -14.5892 17.3117
head 7.00128 -7.20473 6.83667
rclavicle -2.6339e-014 3.19049e-014
rhumerus -50.3057 17.543 -95.0013
rradius 55.6163
rwrist 4.37296
rhand -3.70314 -51.342
rfingers 7.12502
rthumb 22.039 -80.1062
lclavicle -2.6339e-014 3.19049e-014
lhumerus -51.8038 10.7052 67.1684
lradius 35.6864
lwrist -13.4672
lhand -4.69092 -31.5645
lfingers 7.12502
lthumb 21.0904 -2.69149
rfemur -1.42096 13.4877 37.1266
rtibia 21.9647
rfoot -16.8851 -21.8026
rtoes 19.6679
lfemur -25.5106 -5.03401 -16.0991
ltibia 59.666
lfoot -12.6266 8.60555
ltoes -31.4969
756
root -4.2921 15.2021 -25.1219 181.292 -9.48041 176.024
lowerback 6.83411 0.33664 -1.83502
upperback -3.97541 0.0344067 -1.74413
thorax -8.02838 0.0209213 -0.80623
lowerneck -4.42772 -9.05188 -15.2136
upperneck 12.8741 -14.4615 17.2665
head 7.01036 -7.11798 6.80037
rclavicle -8.44835e-016 2.32081e-014
rhumerus -50.0932 17.7076 -95.1198
rradius 56.3536
rwrist 4.34487
rhand -3.6477 -51.1251
rfingers 7.12502
rthumb 22.0922 -79.8831
lclavicle -8.44835e-016 2.32081e-014
lhumerus -52.2735 10.3238 67.6115
lradius 36.1063
lwrist -12.4633
lhand -4.53922 -31.0355
lfingers 7.12502
lthumb 21.2361 -2.17875
rfemur -0.768916 13.8212 37.1735
rtibia 21.6732
rfoot -17.16 -21.0752
rtoes 19.3978
lfemur -25.9915 -5.87835 -16.0863
ltibia 57.9409
lfoot -13.5169 9.16833
ltoes -27.2534
757
root -4.31731 15.1944 -25.2224 181.38 -8.37943 176.083
lowerback 6.81889 0.370777 -1.63259
upperback -4.03369 0.0969125 -1.7525
thorax -8.0813 0.0393464 -0.937713
lowerneck -4.38733 -8.90034 -15.0313
upperneck 12.7023 -14.2387 17.252
head 6.89452 -7.00908 6.79629
rclavicle -1.82385e-014 1.47598e-014
rhumerus -50.1228 17.8826 -95.3777
rradius 56.9703
rwrist 4.38408
rhand -3.83834 -50.9365
rfingers 7.12502
rthumb 21.9092 -79.716
lclavicle -1.82385e-014 1.47598e-014
lhumerus -52.921 10.2249 67.6619
lradius 36.3352
lwrist -12.0004
lhand -4.20974 -31.1107
lfingers 7.12502
lthumb 21.5525 -2.28997
rfemur -0.141344 14.5309 37.1758
rtibia 20.8029
rfoot -16.4204 -20.5698
rtoes 20.3659
lfemur -26.5868 -6.88946 -16.0378
ltibia 56.2319
lfoot -14.2021 9.83309
ltoes -27.3866
758
root -4.34185 15.1651 -25.327 181.435 -7.31241 176.227
lowerback 6.83832 0.416897 -1.42773
upperback -4.1288 0.178542 -1.70746
thorax -8.19374 0.0687601 -1.0177
lowerneck -4.22509 -8.72078 -14.9285
upperneck 12.5707 -14.007 17.2707
head 6.7766 -6.90661 6.82311
rclavicle 4.16205e-016 -5.66536e-015
rhumerus -50.2933 17.9866 -95.6002
rradius 57.5904
rwrist 4.41805
rhand -3.72701 -50.8176
rfingers 7.12502
rthumb 22.0161 -79.5845
lclavicle 4.16205e-016 -5.66536e-015
lhumerus -53.6274 10.0696 67.7154
lradius 36.5229
lwrist -11.9007
lhand -4.13755 -31.747
lfingers 7.12502
lthumb 21.6219 -2.93414
rfemur 0.128307 16.3856 37.232
rtibia 19.7276
rfoot -14.8096 -20.7127
rtoes 25.1826
lfemur -27.2261 -7.88477 -15.8814
ltibia 54.5848
lfoot -14.9015 10.5431
ltoes -28.768
